<?xml version="1.0" standalone="yes"?>
<svg xmlns="http://www.w3.org/2000/svg" width="272" height="185">
<path style="fill:#f5f5f5; stroke:none;" d="M0 0L0 185L272 185L272 0L0 0z"/>
<path style="fill:#a6a6a6; stroke:none;" d="M116 28L117 29L116 28z"/>
<path style="fill:#686868; stroke:none;" d="M117 28L118 29L117 28z"/>
<path style="fill:#313131; stroke:none;" d="M118 28L119 29L118 28z"/>
<path style="fill:#454545; stroke:none;" d="M115 29L115 32L113 31C110.604 36.7678 109.567 41.8388 111 48L80 48C75.0807 48.0019 70.0069 47.2013 69 53L68 53L67 51L64 54L65 70L67 71L69 70L69 72L80 74L85 79L91 80L91 82L100 84L111 91L118 94L121 93L132 98.3935L161 91L161 89C164.501 89.2314 166.969 88.5405 168 85L169 85L170 87L181 82L181 80L192 77L191 75L194 76L203 72L203 70L205 71L205 69L207 70C207.723 65.4545 208.538 55.8932 205.593 52.1335C198.673 43.3013 172.217 48 162 48L161 46L162 33L158 29L115 29z"/>
<path style="fill:#313131; stroke:none;" d="M120 28L120 29L154 29L120 28z"/>
<path style="fill:#686868; stroke:none;" d="M155 28L156 29L155 28z"/>
<path style="fill:#a6a6a6; stroke:none;" d="M156 28L157 29L156 28M114 29L113 31L114 29z"/>
<path style="fill:#313131; stroke:none;" d="M116 29L117 30L116 29M156 29L157 30L156 29z"/>
<path style="fill:#a6a6a6; stroke:none;" d="M158 29L159 30L158 29z"/>
<path style="fill:#313131; stroke:none;" d="M114.333 30.6667L114.667 31.3333L114.333 30.6667M153.667 30.3333L154.333 30.6667L153.667 30.3333M157.667 30.3333L158.333 30.6667L157.667 30.3333z"/>
<path style="fill:#686868; stroke:none;" d="M159 30L160 31L159 30z"/>
<path style="fill:#a6a6a6; stroke:none;" d="M112 31L113 32L112 31z"/>
<path style="fill:#313131; stroke:none;" d="M119 31L120 32L119 31z"/>
<path style="fill:#686868; stroke:none;" d="M160 31L161 32L160 31z"/>
<path style="fill:#313131; stroke:none;" d="M123 32L124 33L123 32M153 32L154 33L153 32M160 32L161 33L160 32z"/>
<path style="fill:#a6a6a6; stroke:none;" d="M161 32L162 33L161 32z"/>
<path style="fill:#686868; stroke:none;" d="M111 33L112 34L111 33z"/>
<path style="fill:#313131; stroke:none;" d="M111.333 34.6667L111.667 35.3333L111.333 34.6667M152 34L153 35L152 34M161 34L162 35L161 34z"/>
<path style="fill:#a6a6a6; stroke:none;" d="M162 34L163 35L162 34M110 35L111 36L110 35z"/>
<path style="fill:#686868; stroke:none;" d="M153 35L154 36L153 35M162 35L161 37L162 35M110 36L111 37L110 36z"/>
<path style="fill:#313131; stroke:none;" d="M122 37L122 38L154 38C146.852 33.867 130.419 37 122 37M162 36L162 40L163 40L162 36M120 37L121 38L120 37z"/>
<path style="fill:#454545; stroke:none;" d="M152 37L153 38L152 37z"/>
<path style="fill:#313131; stroke:none;" d="M157 37L158 38L157 37z"/>
<path style="fill:#a6a6a6; stroke:none;" d="M120 38L120 47L121 47L120 38z"/>
<path style="fill:#f5f5f5; stroke:none;" d="M121 38L121 47L153 47L153 38L121 38z"/>
<path style="fill:#686868; stroke:none;" d="M110.333 39.6667L110.667 40.3333L110.333 39.6667z"/>
<path style="fill:#313131; stroke:none;" d="M153 39L153 45L154 45L153 39M157 39L158 40L157 39M119 40L119 48L120 48L119 40M160 40L161 41L160 40M111 41L112 42L111 41M162 41L163 42L162 41z"/>
<path style="fill:#a6a6a6; stroke:none;" d="M163 41L164 42L163 41z"/>
<path style="fill:#313131; stroke:none;" d="M154 45L155 46L154 45M161.667 45.3333L162.333 45.6667L161.667 45.3333z"/>
<path style="fill:#686868; stroke:none;" d="M110 46L73 47L73 48L111 47L110 46z"/>
<path style="fill:#313131; stroke:none;" d="M155 46L156 47L155 46M158 46L159 47L158 46z"/>
<path style="fill:#a6a6a6; stroke:none;" d="M71.6667 47.3333L72.3333 47.6667L71.6667 47.3333z"/>
<path style="fill:#313131; stroke:none;" d="M110 47L111 48L110 47z"/>
<path style="fill:#686868; stroke:none;" d="M120 47L120 48L153 48L120 47z"/>
<path style="fill:#313131; stroke:none;" d="M153 47L154 48L153 47M160 47L161 48L160 47M162 47L163 48L162 47z"/>
<path style="fill:#686868; stroke:none;" d="M163 47L163 48L200 48C190.202 43.8887 173.649 47 163 47z"/>
<path style="fill:#a6a6a6; stroke:none;" d="M200 47L201 48L200 47z"/>
<path style="fill:#686868; stroke:none;" d="M69 48L70 49L69 48z"/>
<path style="fill:#313131; stroke:none;" d="M70 48L71 49L70 48M200.667 48.3333L201.333 48.6667L200.667 48.3333z"/>
<path style="fill:#686868; stroke:none;" d="M202 48L203 49L202 48z"/>
<path style="fill:#a6a6a6; stroke:none;" d="M67 49L68 50L67 49z"/>
<path style="fill:#313131; stroke:none;" d="M68 49L65 54L66 54L68 49M203 49L207 53L203 49z"/>
<path style="fill:#a6a6a6; stroke:none;" d="M204 49L205 50L204 49z"/>
<path style="fill:#686868; stroke:none;" d="M66 50L67 51L66 50M205 50L206 51L205 50z"/>
<path style="fill:#a6a6a6; stroke:none;" d="M65 51L66 52L65 51z"/>
<path style="fill:#686868; stroke:none;" d="M68 51L69 52L68 51z"/>
<path style="fill:#313131; stroke:none;" d="M202 51L203 52L202 51z"/>
<path style="fill:#686868; stroke:none;" d="M203 51L204 52L203 51z"/>
<path style="fill:#a6a6a6; stroke:none;" d="M206 51L207 52L206 51z"/>
<path style="fill:#313131; stroke:none;" d="M68 52L69 53L68 52z"/>
<path style="fill:#686868; stroke:none;" d="M64 53L65 54L64 53z"/>
<path style="fill:#313131; stroke:none;" d="M67 53L68 54L67 53z"/>
<path style="fill:#686868; stroke:none;" d="M69 53L70 54L69 53z"/>
<path style="fill:#313131; stroke:none;" d="M204 53L205 54L204 53z"/>
<path style="fill:#686868; stroke:none;" d="M207 53L208 54L207 53z"/>
<path style="fill:#313131; stroke:none;" d="M69 54L70 55L69 54z"/>
<path style="fill:#686868; stroke:none;" d="M201 54L202 55L201 54z"/>
<path style="fill:#313131; stroke:none;" d="M202 54L203 55L202 54z"/>
<path style="fill:#a6a6a6; stroke:none;" d="M63 55L63 69L64 69L63 55z"/>
<path style="fill:#313131; stroke:none;" d="M64 55L64 66L65 66L64 55M70 55L71 56L70 55M201 55L202 56L201 55M207 55L207 66L208 66L207 55z"/>
<path style="fill:#a6a6a6; stroke:none;" d="M208 56L207 70L208 70L208 56z"/>
<path style="fill:#313131; stroke:none;" d="M200 65L201 66L200 65M65 66L66 67L65 66M206 66L207 67L206 66M68 67L69 68L68 67M64.6667 68.3333L65.3333 68.6667L64.6667 68.3333M207 68L208 69L207 68z"/>
<path style="fill:#686868; stroke:none;" d="M64 69L65 70L64 69z"/>
<path style="fill:#313131; stroke:none;" d="M66 69L67 70L66 69M69 69L70 70L69 69M205 69L206 70L205 69z"/>
<path style="fill:#a6a6a6; stroke:none;" d="M66 70L67 71L66 70z"/>
<path style="fill:#313131; stroke:none;" d="M68 70L69 71L68 70M203 70L204 71L203 70z"/>
<path style="fill:#a6a6a6; stroke:none;" d="M205 70L206 71L205 70M68 71L69 72L68 71z"/>
<path style="fill:#313131; stroke:none;" d="M70 71L71 72L70 71M201 71L202 72L201 71z"/>
<path style="fill:#a6a6a6; stroke:none;" d="M203 71L204 72L203 71M70 72L71 73L70 72z"/>
<path style="fill:#686868; stroke:none;" d="M71 72L72 73L71 72z"/>
<path style="fill:#313131; stroke:none;" d="M72 72L73 73L72 72M199 72L200 73L199 72z"/>
<path style="fill:#686868; stroke:none;" d="M200 72L201 73L200 72z"/>
<path style="fill:#a6a6a6; stroke:none;" d="M201 72L202 73L201 72z"/>
<path style="fill:#686868; stroke:none;" d="M73 73L74 74L73 73z"/>
<path style="fill:#313131; stroke:none;" d="M74 73L74 74L80 76L80 75L80 74L74 73M193 73L194 74L193 73M194 74L194 75L198 74L194 74z"/>
<path style="fill:#686868; stroke:none;" d="M198 73L199 74L198 73z"/>
<path style="fill:#a6a6a6; stroke:none;" d="M199 73L200 74L199 73M75 74L76 75L75 74z"/>
<path style="fill:#313131; stroke:none;" d="M87 74L88 75L87 74z"/>
<path style="fill:#686868; stroke:none;" d="M196 74L197 75L196 74z"/>
<path style="fill:#a6a6a6; stroke:none;" d="M77 75L78 76L77 75z"/>
<path style="fill:#313131; stroke:none;" d="M191.667 75.3333L192.333 75.6667L191.667 75.3333z"/>
<path style="fill:#a6a6a6; stroke:none;" d="M194 75L195 76L194 75M79 76L80 77L79 76z"/>
<path style="fill:#313131; stroke:none;" d="M184 76L185 77L184 76M185 78L185 79L190 77L185 78z"/>
<path style="fill:#a6a6a6; stroke:none;" d="M192 76L193 77L192 76M81 77L82 78L81 77z"/>
<path style="fill:#686868; stroke:none;" d="M82 77L83 78L82 77z"/>
<path style="fill:#313131; stroke:none;" d="M83.6667 77.3333L84.3333 77.6667L83.6667 77.3333z"/>
<path style="fill:#686868; stroke:none;" d="M189 77L190 78L189 77z"/>
<path style="fill:#a6a6a6; stroke:none;" d="M190 77L191 78L190 77M63 78L63 145L64 145L64 99L63 78z"/>
<path style="fill:#686868; stroke:none;" d="M64 78L65 79L64 78z"/>
<path style="fill:#a6a6a6; stroke:none;" d="M65 78L66 79L65 78M83 78L84 79L83 78z"/>
<path style="fill:#686868; stroke:none;" d="M84 78L85 79L84 78z"/>
<path style="fill:#313131; stroke:none;" d="M86 78L88 80L86 78z"/>
<path style="fill:#686868; stroke:none;" d="M187 78L188 79L187 78z"/>
<path style="fill:#a6a6a6; stroke:none;" d="M188 78L189 79L188 78M206 78L207 79L206 78z"/>
<path style="fill:#686868; stroke:none;" d="M207 78L208 79L207 78z"/>
<path style="fill:#a6a6a6; stroke:none;" d="M208 78L208 145L209 145L209 99L208 78z"/>
<path style="fill:#313131; stroke:none;" d="M64 79L66 82L64 79z"/>
<path style="fill:#454545; stroke:none;" d="M65 79L66 82L64 81L64 82L65 149L68 152C73.2271 151.994 83.9954 149.971 86 156L91 158L91 156L92 156L92 158L95 156L94 153C112.328 148.649 139.158 150.598 158 152.166C163.576 152.63 176.054 149.218 177 157L186 155C186.635 150.141 200.62 151.828 205 151C205.169 146.341 207.822 141.869 207.833 137C207.862 124.69 207.029 112.322 207 100C206.99 95.7847 210.195 84.829 205 84L205 83L208 82L208 81L190 86L184 91L181 90L172 94L170 95L160 102L157 101L153 103L153 106L151 105L149 112L145 115L122 111C120.561 104.822 117.706 101.205 111 101L111 99L100 96L100 94L89 91L89 89L82 86L69 82L69 80L65 79z"/>
<path style="fill:#686868; stroke:none;" d="M66 79L67 80L66 79z"/>
<path style="fill:#a6a6a6; stroke:none;" d="M67 79L68 80L67 79z"/>
<path style="fill:#686868; stroke:none;" d="M86 79L87 80L86 79z"/>
<path style="fill:#a6a6a6; stroke:none;" d="M185 79L186 80L185 79M204 79L205 80L204 79z"/>
<path style="fill:#686868; stroke:none;" d="M205 79L206 80L205 79z"/>
<path style="fill:#313131; stroke:none;" d="M206 79L208 81L208 79L206 79M67 80L68 81L67 80z"/>
<path style="fill:#a6a6a6; stroke:none;" d="M69 80L70 81L69 80M88 80L89 81L88 80z"/>
<path style="fill:#313131; stroke:none;" d="M90 80L91 81L90 80M181 80L182 81L181 80z"/>
<path style="fill:#a6a6a6; stroke:none;" d="M183 80L184 81L183 80M202 80L203 81L202 80z"/>
<path style="fill:#313131; stroke:none;" d="M204 80L205 81L204 80M69 81L70 82L69 81z"/>
<path style="fill:#686868; stroke:none;" d="M71 81L72 82L71 81z"/>
<path style="fill:#a6a6a6; stroke:none;" d="M90 81L91 82L90 81z"/>
<path style="fill:#313131; stroke:none;" d="M92 81L93 82L92 81M101.667 81.3333L102.333 81.6667L101.667 81.3333M169.667 81.3333L170.333 81.6667L169.667 81.3333M179 81L180 82L179 81z"/>
<path style="fill:#a6a6a6; stroke:none;" d="M181 81L182 82L181 81z"/>
<path style="fill:#686868; stroke:none;" d="M200 81L201 82L200 81z"/>
<path style="fill:#313131; stroke:none;" d="M206 81L207 82L206 81M71 82L71 83L75 84L75 83L71 82z"/>
<path style="fill:#a6a6a6; stroke:none;" d="M73 82L74 83L73 82M92 82L93 83L92 82z"/>
<path style="fill:#686868; stroke:none;" d="M93 82L94 83L93 82z"/>
<path style="fill:#313131; stroke:none;" d="M98.6667 82.3333L99.3333 82.6667L98.6667 82.3333M175 84L178 83L175 84z"/>
<path style="fill:#686868; stroke:none;" d="M178 82L179 83L178 82z"/>
<path style="fill:#a6a6a6; stroke:none;" d="M179 82L180 83L179 82z"/>
<path style="fill:#686868; stroke:none;" d="M198 82L199 83L198 82z"/>
<path style="fill:#313131; stroke:none;" d="M199 82L200 83L199 82M204 82L205 83L204 82M207 82L205 83L205 84L207 82M64 83L65 84L64 83M66 83L67 84L66 83M69 83L70 84L69 83z"/>
<path style="fill:#686868; stroke:none;" d="M75 83L76 84L75 83z"/>
<path style="fill:#a6a6a6; stroke:none;" d="M76 83L77 84L76 83z"/>
<path style="fill:#686868; stroke:none;" d="M95 83L96 84L95 83z"/>
<path style="fill:#313131; stroke:none;" d="M96 83L97 84L96 83M171 83L172 84L171 83z"/>
<path style="fill:#686868; stroke:none;" d="M176 83L177 84L176 83z"/>
<path style="fill:#a6a6a6; stroke:none;" d="M195 83L196 84L195 83z"/>
<path style="fill:#686868; stroke:none;" d="M196 83L197 84L196 83z"/>
<path style="fill:#313131; stroke:none;" d="M197.667 83.3333L198.333 83.6667L197.667 83.3333M202 83L203 84L202 83z"/>
<path style="fill:#686868; stroke:none;" d="M65 84L66 85L65 84M77 84L78 85L77 84z"/>
<path style="fill:#a6a6a6; stroke:none;" d="M78 84L79 85L78 84z"/>
<path style="fill:#686868; stroke:none;" d="M97 84L98 85L97 84z"/>
<path style="fill:#313131; stroke:none;" d="M99 84L100 85L99 84M172.667 84.3333L173.333 84.6667L172.667 84.3333z"/>
<path style="fill:#a6a6a6; stroke:none;" d="M174 84L175 85L174 84M193 84L194 85L193 84z"/>
<path style="fill:#686868; stroke:none;" d="M194 84L195 85L194 84z"/>
<path style="fill:#313131; stroke:none;" d="M64 85L65 86L64 85M69.6667 85.3333L70.3333 85.6667L69.6667 85.3333M79 85L81 87L79 85z"/>
<path style="fill:#a6a6a6; stroke:none;" d="M80.6667 85.3333L81.3333 85.6667L80.6667 85.3333M99 85L100 86L99 85z"/>
<path style="fill:#313131; stroke:none;" d="M168.333 85.6667L168.667 86.3333L168.333 85.6667z"/>
<path style="fill:#a6a6a6; stroke:none;" d="M172 85L173 86L172 85M191 85L192 86L191 85z"/>
<path style="fill:#313131; stroke:none;" d="M192.667 85.3333L193.333 85.6667L192.667 85.3333M201 85L200 87L201 85M207 85L208 86L207 85M67.3333 86.6667L67.6667 87.3333L67.3333 86.6667z"/>
<path style="fill:#a6a6a6; stroke:none;" d="M68 86L68 123L69 123C69 112.351 72.1113 95.7978 68 86z"/>
<path style="fill:#f5f5f5; stroke:none;" d="M69 86L69 130C69 134.19 67.3343 143.058 70.6034 146.258C75.2299 150.787 90.8828 148 97 148L172 148C178.537 148 196.406 151.109 201.258 146.258C204.607 142.908 203 134.321 203 130L203 86C188.459 92.0458 172.773 98.1225 159.043 105.824C153.66 108.844 151.551 115.577 145 116.772C138.911 117.882 127.417 118.451 122.094 114.991C117.989 112.322 116.513 107.624 111.981 105.324C98.0863 98.2716 83.3875 91.9821 69 86z"/>
<path style="fill:#a6a6a6; stroke:none;" d="M70 86L71 87L70 86z"/>
<path style="fill:#686868; stroke:none;" d="M82 86L83 87L82 86z"/>
<path style="fill:#a6a6a6; stroke:none;" d="M101 86L102 87L101 86z"/>
<path style="fill:#686868; stroke:none;" d="M102 86L103 87L102 86z"/>
<path style="fill:#313131; stroke:none;" d="M103 86L104 87L103 86z"/>
<path style="fill:#a6a6a6; stroke:none;" d="M170 86L171 87L170 86M189 86L190 87L189 86z"/>
<path style="fill:#313131; stroke:none;" d="M191 86L192 87L191 86M198 86L197 88L198 86z"/>
<path style="fill:#a6a6a6; stroke:none;" d="M201 86L202 87L201 86M203 86L203 91L204 91L203 86z"/>
<path style="fill:#313131; stroke:none;" d="M204 86L205 87L204 86M64 87L64 93L65 93L64 87z"/>
<path style="fill:#a6a6a6; stroke:none;" d="M72 87L73 88L72 87z"/>
<path style="fill:#686868; stroke:none;" d="M73 87L74 88L73 87z"/>
<path style="fill:#313131; stroke:none;" d="M74 87L74 88L78 89L78 88L74 87M82.6667 87.3333L83.3333 87.6667L82.6667 87.3333z"/>
<path style="fill:#686868; stroke:none;" d="M84 87L85 88L84 87z"/>
<path style="fill:#a6a6a6; stroke:none;" d="M85 87L86 88L85 87M168 87L169 88L168 87M186 87L187 88L186 87z"/>
<path style="fill:#686868; stroke:none;" d="M187 87L188 88L187 87z"/>
<path style="fill:#313131; stroke:none;" d="M188.667 87.3333L189.333 87.6667L188.667 87.3333z"/>
<path style="fill:#454545; stroke:none;" d="M198 87L199 88L198 87z"/>
<path style="fill:#a6a6a6; stroke:none;" d="M199 87L200 88L199 87z"/>
<path style="fill:#313131; stroke:none;" d="M206 87L207 88L206 87z"/>
<path style="fill:#a6a6a6; stroke:none;" d="M74 88L75 89L74 88z"/>
<path style="fill:#686868; stroke:none;" d="M75 88L76 89L75 88z"/>
<path style="fill:#313131; stroke:none;" d="M80 88L81 89L80 88M85 88L86 89L85 88z"/>
<path style="fill:#686868; stroke:none;" d="M86 88L87 89L86 88z"/>
<path style="fill:#a6a6a6; stroke:none;" d="M87 88L88 89L87 88M105 88L106 89L105 88z"/>
<path style="fill:#686868; stroke:none;" d="M106 88L107 89L106 88z"/>
<path style="fill:#313131; stroke:none;" d="M107 88L107 89L111 90L111 89L107 88z"/>
<path style="fill:#686868; stroke:none;" d="M165 88L166 89L165 88z"/>
<path style="fill:#a6a6a6; stroke:none;" d="M184 88L185 89L184 88z"/>
<path style="fill:#686868; stroke:none;" d="M185 88L186 89L185 88z"/>
<path style="fill:#313131; stroke:none;" d="M186 88L187 89L186 88M191 88L192 89L191 88M195 88L196 89L195 88z"/>
<path style="fill:#686868; stroke:none;" d="M196 88L197 89L196 88z"/>
<path style="fill:#a6a6a6; stroke:none;" d="M197 88L198 89L197 88M76 89L77 90L76 89z"/>
<path style="fill:#686868; stroke:none;" d="M77 89L78 90L77 89z"/>
<path style="fill:#313131; stroke:none;" d="M79 89L82 91L82 90L79 89M83 89L84 90L83 89M87 89L88 90L87 89z"/>
<path style="fill:#a6a6a6; stroke:none;" d="M89 89L90 90L89 89M108 89L109 90L108 89z"/>
<path style="fill:#313131; stroke:none;" d="M127 89L128 90L127 89M144 89L145 90L144 89M161 89L162 90L161 89z"/>
<path style="fill:#a6a6a6; stroke:none;" d="M163 89L164 90L163 89M182 89L183 90L182 89z"/>
<path style="fill:#313131; stroke:none;" d="M193 89L194 90L193 89z"/>
<path style="fill:#686868; stroke:none;" d="M194 89L195 90L194 89z"/>
<path style="fill:#a6a6a6; stroke:none;" d="M195 89L196 90L195 89z"/>
<path style="fill:#686868; stroke:none;" d="M79 90L80 91L79 90z"/>
<path style="fill:#313131; stroke:none;" d="M89 90L90 91L89 90z"/>
<path style="fill:#a6a6a6; stroke:none;" d="M91 90L92 91L91 90M110 90L111 91L110 90z"/>
<path style="fill:#313131; stroke:none;" d="M112 90L112 91L118 93L118 92L112 90M117.667 90.3333L118.333 90.6667L117.667 90.3333M159 90L160 91L159 90z"/>
<path style="fill:#a6a6a6; stroke:none;" d="M161 90L162 91L161 90M180 90L181 91L180 90z"/>
<path style="fill:#313131; stroke:none;" d="M182.667 90.3333L183.333 90.6667L182.667 90.3333M191 90L192 91L191 90z"/>
<path style="fill:#686868; stroke:none;" d="M192 90L193 91L192 90z"/>
<path style="fill:#313131; stroke:none;" d="M207 90L207 107L208 107L207 90z"/>
<path style="fill:#a6a6a6; stroke:none;" d="M81 91L82 92L81 91z"/>
<path style="fill:#313131; stroke:none;" d="M83 91L84 92L83 91M85 91L88 94L85 91M90 91L91 92L90 91M92 91L92 92L97 94L97 93L92 91z"/>
<path style="fill:#686868; stroke:none;" d="M93 91L94 92L93 91z"/>
<path style="fill:#a6a6a6; stroke:none;" d="M112 91L113 92L112 91z"/>
<path style="fill:#686868; stroke:none;" d="M113 91L114 92L113 91z"/>
<path style="fill:#313131; stroke:none;" d="M152 93L152 94L158 92L152 93z"/>
<path style="fill:#686868; stroke:none;" d="M158 91L159 92L158 91z"/>
<path style="fill:#a6a6a6; stroke:none;" d="M159 91L160 92L159 91z"/>
<path style="fill:#686868; stroke:none;" d="M178 91L179 92L178 91z"/>
<path style="fill:#313131; stroke:none;" d="M179.667 91.3333L180.333 91.6667L179.667 91.3333M181 94L181 95L189 92L181 94z"/>
<path style="fill:#a6a6a6; stroke:none;" d="M190 91L191 92L190 91z"/>
<path style="fill:#686868; stroke:none;" d="M203 91L203 94L204 94L203 91z"/>
<path style="fill:#a6a6a6; stroke:none;" d="M83 92L84 93L83 92z"/>
<path style="fill:#686868; stroke:none;" d="M84 92L85 93L84 92z"/>
<path style="fill:#313131; stroke:none;" d="M88 92L89 93L88 92z"/>
<path style="fill:#686868; stroke:none;" d="M95 92L96 93L95 92z"/>
<path style="fill:#a6a6a6; stroke:none;" d="M114 92L115 93L114 92z"/>
<path style="fill:#686868; stroke:none;" d="M115 92L116 93L115 92M156 92L157 93L156 92z"/>
<path style="fill:#a6a6a6; stroke:none;" d="M157 92L158 93L157 92z"/>
<path style="fill:#686868; stroke:none;" d="M176 92L177 93L176 92z"/>
<path style="fill:#313131; stroke:none;" d="M177.667 92.3333L178.333 92.6667L177.667 92.3333z"/>
<path style="fill:#686868; stroke:none;" d="M187 92L188 93L187 92z"/>
<path style="fill:#a6a6a6; stroke:none;" d="M188 92L189 93L188 92M85 93L86 94L85 93z"/>
<path style="fill:#686868; stroke:none;" d="M86 93L87 94L86 93M97 93L98 94L97 93z"/>
<path style="fill:#a6a6a6; stroke:none;" d="M98 93L99 94L98 93z"/>
<path style="fill:#686868; stroke:none;" d="M117 93L118 94L117 93z"/>
<path style="fill:#313131; stroke:none;" d="M119.667 93.3333L120.333 93.6667L119.667 93.3333z"/>
<path style="fill:#686868; stroke:none;" d="M154 93L155 94L154 93z"/>
<path style="fill:#a6a6a6; stroke:none;" d="M173 93L174 94L173 93z"/>
<path style="fill:#686868; stroke:none;" d="M174 93L175 94L174 93z"/>
<path style="fill:#313131; stroke:none;" d="M175 93L176 94L175 93z"/>
<path style="fill:#686868; stroke:none;" d="M185 93L186 94L185 93z"/>
<path style="fill:#a6a6a6; stroke:none;" d="M186 93L187 94L186 93z"/>
<path style="fill:#313131; stroke:none;" d="M67.3333 94.6667L67.6667 95.3333L67.3333 94.6667z"/>
<path style="fill:#686868; stroke:none;" d="M88 94L89 95L88 94z"/>
<path style="fill:#313131; stroke:none;" d="M89 94L89 95L93 96L93 95L89 94M93 94L94 95L93 94M98 94L99 95L98 94z"/>
<path style="fill:#a6a6a6; stroke:none;" d="M100 94L101 95L100 94M119 94L120 95L119 94M152 94L153 95L152 94M171 94L172 95L171 94z"/>
<path style="fill:#313131; stroke:none;" d="M173.667 94.3333L174.333 94.6667L173.667 94.3333z"/>
<path style="fill:#686868; stroke:none;" d="M183 94L184 95L183 94z"/>
<path style="fill:#a6a6a6; stroke:none;" d="M203 94L203 119L204 119L203 94z"/>
<path style="fill:#686868; stroke:none;" d="M90 95L91 96L90 95z"/>
<path style="fill:#313131; stroke:none;" d="M100 95L101 96L100 95z"/>
<path style="fill:#a6a6a6; stroke:none;" d="M102 95L103 96L102 95M121 95L122 96L121 95z"/>
<path style="fill:#686868; stroke:none;" d="M122 95L123 96L122 95z"/>
<path style="fill:#313131; stroke:none;" d="M123 95L123 96L126 97L123 95M144 97L144 98L149 96L144 97z"/>
<path style="fill:#686868; stroke:none;" d="M149 95L150 96L149 95z"/>
<path style="fill:#a6a6a6; stroke:none;" d="M150 95L151 96L150 95M169 95L170 96L169 95z"/>
<path style="fill:#313131; stroke:none;" d="M171 95L172 96L171 95M179 95L177 96L177 97L179 95z"/>
<path style="fill:#a6a6a6; stroke:none;" d="M181 95L182 96L181 95z"/>
<path style="fill:#313131; stroke:none;" d="M64 96L64 105L65 105L64 96z"/>
<path style="fill:#a6a6a6; stroke:none;" d="M92 96L93 97L92 96z"/>
<path style="fill:#313131; stroke:none;" d="M94 96L95 97L94 96z"/>
<path style="fill:#686868; stroke:none;" d="M95 96L96 97L95 96M104 96L105 97L104 96z"/>
<path style="fill:#a6a6a6; stroke:none;" d="M123 96L124 97L123 96z"/>
<path style="fill:#686868; stroke:none;" d="M124 96L125 97L124 96z"/>
<path style="fill:#313131; stroke:none;" d="M143 96L144 97L143 96z"/>
<path style="fill:#686868; stroke:none;" d="M147 96L148 97L147 96z"/>
<path style="fill:#a6a6a6; stroke:none;" d="M148 96L149 97L148 96M166 96L167 97L166 96z"/>
<path style="fill:#686868; stroke:none;" d="M167 96L168 97L167 96z"/>
<path style="fill:#313131; stroke:none;" d="M168.667 96.3333L169.333 96.6667L168.667 96.3333z"/>
<path style="fill:#a6a6a6; stroke:none;" d="M179 96L180 97L179 96M94 97L95 98L94 97z"/>
<path style="fill:#454545; stroke:none;" d="M95 97L96 98L95 97z"/>
<path style="fill:#313131; stroke:none;" d="M96 97L97 98L96 97M102 97L103 98L102 97M104.667 97.3333L105.333 97.6667L104.667 97.3333z"/>
<path style="fill:#686868; stroke:none;" d="M106 97L107 98L106 97z"/>
<path style="fill:#a6a6a6; stroke:none;" d="M107 97L108 98L107 97z"/>
<path style="fill:#686868; stroke:none;" d="M126 97L127 98L126 97z"/>
<path style="fill:#313131; stroke:none;" d="M127 97L128 98L127 97M130 97L131 98L130 97z"/>
<path style="fill:#686868; stroke:none;" d="M145 97L146 98L145 97z"/>
<path style="fill:#a6a6a6; stroke:none;" d="M146 97L147 98L146 97z"/>
<path style="fill:#686868; stroke:none;" d="M165 97L166 98L165 97z"/>
<path style="fill:#313131; stroke:none;" d="M166 97L167 98L166 97z"/>
<path style="fill:#a6a6a6; stroke:none;" d="M177 97L178 98L177 97M96 98L97 99L96 98z"/>
<path style="fill:#686868; stroke:none;" d="M97 98L98 99L97 98z"/>
<path style="fill:#313131; stroke:none;" d="M98 98L98 99L102 100L102 99L98 98M107 98L108 99L107 98z"/>
<path style="fill:#686868; stroke:none;" d="M108 98L109 99L108 98z"/>
<path style="fill:#a6a6a6; stroke:none;" d="M109 98L110 99L109 98z"/>
<path style="fill:#686868; stroke:none;" d="M128 98L129 99L128 98z"/>
<path style="fill:#313131; stroke:none;" d="M131 98L131 99L136 99L131 98M139 98L139 99L142 99L139 98z"/>
<path style="fill:#686868; stroke:none;" d="M143 98L144 99L143 98z"/>
<path style="fill:#a6a6a6; stroke:none;" d="M162 98L163 99L162 98z"/>
<path style="fill:#686868; stroke:none;" d="M163 98L164 99L163 98z"/>
<path style="fill:#313131; stroke:none;" d="M164 98L165 99L164 98M170 99L170 100L174 99L170 99z"/>
<path style="fill:#686868; stroke:none;" d="M174 98L175 99L174 98z"/>
<path style="fill:#a6a6a6; stroke:none;" d="M175 98L176 99L175 98z"/>
<path style="fill:#686868; stroke:none;" d="M99 99L100 100L99 99z"/>
<path style="fill:#313131; stroke:none;" d="M109 99L110 100L109 99z"/>
<path style="fill:#a6a6a6; stroke:none;" d="M111 99L112 100L111 99M160 99L161 100L160 99z"/>
<path style="fill:#313131; stroke:none;" d="M162 99L163 100L162 99z"/>
<path style="fill:#686868; stroke:none;" d="M172 99L173 100L172 99z"/>
<path style="fill:#a6a6a6; stroke:none;" d="M173 99L174 100L173 99M101 100L102 101L101 100z"/>
<path style="fill:#313131; stroke:none;" d="M103 100L104 101L103 100M105 100L106 101L105 100M111 100L112 101L111 100z"/>
<path style="fill:#a6a6a6; stroke:none;" d="M113 100L114 101L113 100M158 100L159 101L158 100z"/>
<path style="fill:#313131; stroke:none;" d="M168 100L169 101L168 100z"/>
<path style="fill:#a6a6a6; stroke:none;" d="M170 100L171 101L170 100M103 101L104 102L103 101z"/>
<path style="fill:#313131; stroke:none;" d="M113.667 101.333L114.333 101.667L113.667 101.333z"/>
<path style="fill:#686868; stroke:none;" d="M115 101L116 102L115 101z"/>
<path style="fill:#a6a6a6; stroke:none;" d="M116 101L117 102L116 101M155 101L156 102L155 101z"/>
<path style="fill:#686868; stroke:none;" d="M156 101L157 102L156 101z"/>
<path style="fill:#313131; stroke:none;" d="M158.667 101.333L159.333 101.667L158.667 101.333M166 101L167 102L166 101z"/>
<path style="fill:#a6a6a6; stroke:none;" d="M168 101L169 102L168 101M105 102L106 103L105 102z"/>
<path style="fill:#686868; stroke:none;" d="M106 102L107 103L106 102z"/>
<path style="fill:#313131; stroke:none;" d="M107 102L108 103L107 102z"/>
<path style="fill:#686868; stroke:none;" d="M117 102L118 103L117 102z"/>
<path style="fill:#a6a6a6; stroke:none;" d="M118 102L119 103L118 102M153 102L154 103L153 102z"/>
<path style="fill:#686868; stroke:none;" d="M154 102L155 103L154 102z"/>
<path style="fill:#313131; stroke:none;" d="M155.667 102.333L156.333 102.667L155.667 102.333M164 102L165 103L164 102z"/>
<path style="fill:#686868; stroke:none;" d="M165 102L166 103L165 102z"/>
<path style="fill:#a6a6a6; stroke:none;" d="M166 102L167 103L166 102M107 103L108 104L107 103z"/>
<path style="fill:#686868; stroke:none;" d="M108 103L109 104L108 103z"/>
<path style="fill:#313131; stroke:none;" d="M109 103L110 104L109 103M112 103L111 104L114 106L112 103z"/>
<path style="fill:#a6a6a6; stroke:none;" d="M120 103L121 104L120 103M151 103L152 104L151 103z"/>
<path style="fill:#686868; stroke:none;" d="M152 103L153 104L152 103z"/>
<path style="fill:#313131; stroke:none;" d="M154 103L155 104L154 103M158 106L163 104L158 106z"/>
<path style="fill:#686868; stroke:none;" d="M163 103L164 104L163 103z"/>
<path style="fill:#a6a6a6; stroke:none;" d="M164 103L165 104L164 103z"/>
<path style="fill:#686868; stroke:none;" d="M110 104L111 105L110 104z"/>
<path style="fill:#313131; stroke:none;" d="M120.333 104.667L120.667 105.333L120.333 104.667z"/>
<path style="fill:#686868; stroke:none;" d="M121 104L121 107L122 107L121 104M150 104L150 107L151 107L150 104z"/>
<path style="fill:#313131; stroke:none;" d="M151 104L153 106L153 104L151 104z"/>
<path style="fill:#686868; stroke:none;" d="M161 104L162 105L161 104z"/>
<path style="fill:#313131; stroke:none;" d="M67 105L67 109L68 109L67 105z"/>
<path style="fill:#686868; stroke:none;" d="M112 105L113 106L112 105z"/>
<path style="fill:#313131; stroke:none;" d="M115 105L119 109L115 105M154 105L155 106L154 105z"/>
<path style="fill:#a6a6a6; stroke:none;" d="M159 105L160 106L159 105M114 106L115 107L114 106z"/>
<path style="fill:#454545; stroke:none;" d="M115 106L116 107L115 106z"/>
<path style="fill:#a6a6a6; stroke:none;" d="M157 106L158 107L157 106M116 107L117 108L116 107z"/>
<path style="fill:#686868; stroke:none;" d="M118 107L119 108L118 107z"/>
<path style="fill:#313131; stroke:none;" d="M121 107L122 111L123 111L121 107M150.333 107.667L150.667 108.333L150.333 107.667M152 107L153 108L152 107M154.333 107.667L154.667 108.333L154.333 107.667z"/>
<path style="fill:#a6a6a6; stroke:none;" d="M155 107L156 108L155 107M122 108L123 109L122 108M149 108L150 109L149 108z"/>
<path style="fill:#313131; stroke:none;" d="M64 109L64 112L65 112L64 109z"/>
<path style="fill:#a6a6a6; stroke:none;" d="M117.333 109.667L117.667 110.333L117.333 109.667M123 109L124 110L123 109M148 109L149 110L148 109z"/>
<path style="fill:#313131; stroke:none;" d="M152 109L153 110L152 109z"/>
<path style="fill:#a6a6a6; stroke:none;" d="M154 109L155 110L154 109z"/>
<path style="fill:#313131; stroke:none;" d="M118 110L120 112L118 110z"/>
<path style="fill:#a6a6a6; stroke:none;" d="M147 110L148 111L147 110z"/>
<path style="fill:#313131; stroke:none;" d="M150 110L151 111L150 110M153 110L154 111L153 110z"/>
<path style="fill:#686868; stroke:none;" d="M118 111L119 112L118 111z"/>
<path style="fill:#313131; stroke:none;" d="M124 111L125 112L124 111z"/>
<path style="fill:#686868; stroke:none;" d="M125 111L126 112L125 111z"/>
<path style="fill:#a6a6a6; stroke:none;" d="M126 111L127 112L126 111M145 111L146 112L145 111z"/>
<path style="fill:#686868; stroke:none;" d="M146 111L147 112L146 111z"/>
<path style="fill:#313131; stroke:none;" d="M147.667 111.333L148.333 111.667L147.667 111.333z"/>
<path style="fill:#686868; stroke:none;" d="M153 111L154 112L153 111z"/>
<path style="fill:#313131; stroke:none;" d="M127 112L127 113L146 113L127 112z"/>
<path style="fill:#686868; stroke:none;" d="M152 112L153 113L152 112z"/>
<path style="fill:#313131; stroke:none;" d="M207 112L207 116L208 116L207 112z"/>
<path style="fill:#a6a6a6; stroke:none;" d="M119 113L120 114L119 113z"/>
<path style="fill:#313131; stroke:none;" d="M151 113L152 114L151 113z"/>
<path style="fill:#a6a6a6; stroke:none;" d="M120 114L121 115L120 114z"/>
<path style="fill:#686868; stroke:none;" d="M121 114L122 115L121 114z"/>
<path style="fill:#313131; stroke:none;" d="M122 114L123 115L122 114z"/>
<path style="fill:#686868; stroke:none;" d="M144 114L145 115L144 114z"/>
<path style="fill:#313131; stroke:none;" d="M149 114L150 115L149 114z"/>
<path style="fill:#686868; stroke:none;" d="M150 114L151 115L150 114z"/>
<path style="fill:#a6a6a6; stroke:none;" d="M122 115L123 116L122 115z"/>
<path style="fill:#313131; stroke:none;" d="M147 115L148 116L147 115z"/>
<path style="fill:#a6a6a6; stroke:none;" d="M149 115L150 116L149 115z"/>
<path style="fill:#313131; stroke:none;" d="M64 116L64 120L65 120L64 116z"/>
<path style="fill:#a6a6a6; stroke:none;" d="M124 116L125 117L124 116z"/>
<path style="fill:#686868; stroke:none;" d="M125 116L126 117L125 116z"/>
<path style="fill:#313131; stroke:none;" d="M127 116L127 117L145 117L127 116z"/>
<path style="fill:#686868; stroke:none;" d="M146 116L147 117L146 116z"/>
<path style="fill:#a6a6a6; stroke:none;" d="M147 116L148 117L147 116z"/>
<path style="fill:#313131; stroke:none;" d="M67 117L67 120L68 120L67 117z"/>
<path style="fill:#686868; stroke:none;" d="M203 119L204 120L203 119z"/>
<path style="fill:#a6a6a6; stroke:none;" d="M203 120L203 144L204 144L203 120z"/>
<path style="fill:#313131; stroke:none;" d="M207 121L207 124L208 124L207 121z"/>
<path style="fill:#686868; stroke:none;" d="M68 123L68 126L69 126L68 123z"/>
<path style="fill:#313131; stroke:none;" d="M64 125L64 131L65 131L64 125z"/>
<path style="fill:#a6a6a6; stroke:none;" d="M68 126L68 144L69 144L68 126z"/>
<path style="fill:#313131; stroke:none;" d="M204.333 126.667L204.667 127.333L204.333 126.667M207 130L207 135L208 135L207 130M67 131L67 134L68 134L67 131M204 135L205 136L204 135M64 136L64 141L65 141L64 136M207 139L204 150C207.76 147.506 208.711 143.118 207 139M64 144L66 147L64 144z"/>
<path style="fill:#686868; stroke:none;" d="M68 144L69 145L68 144z"/>
<path style="fill:#313131; stroke:none;" d="M68 145L69 146L68 145z"/>
<path style="fill:#a6a6a6; stroke:none;" d="M202 145L203 146L202 145z"/>
<path style="fill:#313131; stroke:none;" d="M203 145L204 146L203 145z"/>
<path style="fill:#686868; stroke:none;" d="M206 145L207 146L206 145M64 146L65 147L64 146M207 146L208 147L207 146z"/>
<path style="fill:#a6a6a6; stroke:none;" d="M64 147L65 148L64 147M71 147L72 148L71 147M200 147L201 148L200 147M207 147L208 148L207 147z"/>
<path style="fill:#313131; stroke:none;" d="M70 148L71 149L70 148z"/>
<path style="fill:#686868; stroke:none;" d="M74.6667 148.333L75.3333 148.667L74.6667 148.333M79 148L79 149L85 149L79 148M87 148L87 149L98 149L87 148M101.667 148.333L102.333 148.667L101.667 148.333M104 148L104 149L111 149L104 148M114 148L114 149L124 149L114 148M126.667 148.333L127.333 148.667L126.667 148.333M130 148L130 149L136 149L130 148M140 148L140 149L150 149L140 148M154 148L154 149L162 149L154 148M164 148L164 149L167 149L164 148M168 148L168 149L172 149L168 148M174.667 148.333L175.333 148.667L174.667 148.333M179 148L179 149L189 149L179 148M191 148L192 149L191 148M194 148L194 149L198 149L194 148z"/>
<path style="fill:#313131; stroke:none;" d="M200 148L201 149L200 148z"/>
<path style="fill:#686868; stroke:none;" d="M206 148L207 149L206 148z"/>
<path style="fill:#313131; stroke:none;" d="M66 149L67 150L66 149M72 149L73 150L72 149z"/>
<path style="fill:#a6a6a6; stroke:none;" d="M66 150L67 151L66 150z"/>
<path style="fill:#313131; stroke:none;" d="M68 150L69 151L68 150M201 150L202 151L201 150z"/>
<path style="fill:#a6a6a6; stroke:none;" d="M67 151L68 152L67 151z"/>
<path style="fill:#313131; stroke:none;" d="M70 151L72 153L70 151M202 151L203 152L202 151z"/>
<path style="fill:#686868; stroke:none;" d="M203 151L204 152L203 151z"/>
<path style="fill:#a6a6a6; stroke:none;" d="M69 152L70 153L69 152z"/>
<path style="fill:#686868; stroke:none;" d="M70 152L71 153L70 152z"/>
<path style="fill:#313131; stroke:none;" d="M73 152L73 153L85 153L73 152M91 152L92 153L91 152M94 153L94 154L104 153L94 153M107 152L107 153L123 153L107 152M124 152L124 153L132 153L124 152M134 152L134 153L145 153L134 152M147 152L147 153L161 153L147 152M164 152L164 153L178 155C174.203 151.122 169.122 152 164 152M178 152L179 153L178 152M185 153L185 154L201 153L185 153z"/>
<path style="fill:#686868; stroke:none;" d="M201 152L202 153L201 152z"/>
<path style="fill:#a6a6a6; stroke:none;" d="M202 152L203 153L202 152M77 153L77 154L80 154L77 153M81 153L81 154L85 154L81 153z"/>
<path style="fill:#686868; stroke:none;" d="M85.3333 153.667L85.6667 154.333L85.3333 153.667M88 153L89 154L88 153z"/>
<path style="fill:#313131; stroke:none;" d="M89 153L90 154L89 153z"/>
<path style="fill:#a6a6a6; stroke:none;" d="M95 153L95 155L97 153L95 153M104 153L104 154L111 154L104 153M117 153L117 154L123 154L117 153M128 153L128 154L136 154L128 153M143 153L143 154L149 154L143 153M155 153L155 154L162 154L155 153M168 153L168 154L176 154L168 153z"/>
<path style="fill:#686868; stroke:none;" d="M180 153L181 154L180 153z"/>
<path style="fill:#313131; stroke:none;" d="M182 153L183 154L182 153z"/>
<path style="fill:#a6a6a6; stroke:none;" d="M186.667 153.333L187.333 153.667L186.667 153.333M191 153L192 154L191 153M195 153L195 154L200 154L195 153z"/>
<path style="fill:#313131; stroke:none;" d="M86 154L87 155L86 154M93 154L92 156L93 154M180 154L181 155L180 154z"/>
<path style="fill:#a6a6a6; stroke:none;" d="M85 155L86 156L85 155z"/>
<path style="fill:#686868; stroke:none;" d="M176 155L177 156L176 155z"/>
<path style="fill:#313131; stroke:none;" d="M184 155L178 156L178 157C180.602 157.729 183.459 158.141 184 155z"/>
<path style="fill:#a6a6a6; stroke:none;" d="M185 155L186 156L185 155z"/>
<path style="fill:#686868; stroke:none;" d="M86 156L87 157L86 156z"/>
<path style="fill:#313131; stroke:none;" d="M87 156L90 158L87 156z"/>
<path style="fill:#686868; stroke:none;" d="M89 156L90 157L89 156z"/>
<path style="fill:#313131; stroke:none;" d="M91.3333 156.667L91.6667 157.333L91.3333 156.667M93 156L94 157L93 156z"/>
<path style="fill:#a6a6a6; stroke:none;" d="M94 156L95 157L94 156z"/>
<path style="fill:#686868; stroke:none;" d="M184 156L185 157L184 156z"/>
<path style="fill:#a6a6a6; stroke:none;" d="M87 157L88 158L87 157M93 157L94 158L93 157M177 157L178 158L177 157z"/>
<path style="fill:#686868; stroke:none;" d="M178 157L179 158L178 157M183 157L184 158L183 157z"/>
<path style="fill:#a6a6a6; stroke:none;" d="M89 158L89 159L92 159L89 158M179 158L179 159L182 159L179 158z"/>
</svg>
